<svg xmlns="http://www.w3.org/2000/svg" xmlns:xlink="http://www.w3.org/1999/xlink" version="1.1" viewBox="0 -200 3776 1000">
  <g transform="matrix(1 0 0 -1 0 500)">
   <path fill="green" stroke="red"
d="M3776 258l-4 -3q-51 64 -126 64q-76 0 -190 -61q-206 -110 -218 -115q-143 -62 -281 -62q-87 0 -157.5 20.5t-109.5 53.5q-69 -38 -138 -61q-107 -36 -210 -36q-154 0 -246 74q-86 70 -86 177q0 101 63.5 162.5t160.5 61.5q75 0 133 -40q44 -31 61 -70q8 2 25 2
q12 0 21 -1t24 -3q-12 36 -27 59q-10 16 -26 28h42q77 0 171.5 -13.5t162.5 -43.5q44 -19 79.5 -36.5t55.5 -30.5q21 7 57.5 13.5t75.5 6.5q47 0 90 -31q51 -36 51 -88q0 -41 -34.5 -65t-81.5 -24q-7 -34 -37 -49q-24 -12 -54 -12q-59 0 -122.5 22t-112.5 58
q-17 -12 -39 -25.5t-46 -27.5q41 -35 122 -56q63 -16 110 -16q188 0 317 85q110 72 110 142q0 11 -9.5 26.5t-11.5 18.5q12 4 20 5.5t18 0.5q42 -5 51 -49q52 25 106 36q35 7 68 7q109 0 172 -104zM2017 446q-50 -8 -70 -36q-11 -16 -26 -69v25q0 52 -4 80q-7 46 -22 46
q-14 0 -19.5 -40.5t-5.5 -85.5v-25q-16 53 -26 68q-20 29 -68 37q16 18 30.5 25t24.5 7q5 0 9.5 -1t5.5 0q0 46 14 104.5t35 87.5q20 -27 35.5 -88.5t15.5 -103.5q6 1 14 1q12 0 25.5 -6.5t31.5 -25.5zM1932 287q0 -12 -10 -15.5t-27 -3.5q-15 0 -25 3.5t-10 15.5
q0 11 10.5 16t24.5 5t25.5 -4.5t11.5 -16.5zM2002 155q0 -12 -10 -21t-25 -9t-31 10v-33q-3 -25 -4 -34q-5 -37 -14.5 -62.5t-22.5 -40.5q-27 30 -37 103q-3 13 -4 39.5t-1 27.5q-14 -10 -30 -10q-15 0 -25 9t-10 21q36 5 56 36q25 39 30 42q0 -59 2.5 -84.5t18.5 -25.5
q13 0 17.5 21.5t4.5 54.5v34q18 -27 28 -43q20 -30 57 -35zM1782 309q0 -106 -86 -176q-92 -75 -246 -75q-101 0 -209 36q-72 24 -139 61q-38 -32 -110.5 -53t-156.5 -21q-139 0 -280 61q-10 4 -218 115q-117 62 -191 62q-75 0 -126 -64l-4 3q63 104 172 104q36 0 67 -6
q51 -10 107 -37q4 21 18 35t35 14q7 0 18.5 -2t17.5 -4q-8 -12 -14.5 -24.5t-6.5 -20.5q0 -69 109 -141q131 -86 318 -86q47 0 110 16q81 21 122 56q-19 12 -35 21q-26 15 -50 32q-47 -35 -112 -57.5t-123 -22.5q-31 0 -53 11q-31 16 -38 50q-46 0 -79 23q-37 26 -37 66
q0 51 51 87q45 32 90 32q38 0 75.5 -6.5t57.5 -13.5q17 11 58.5 31.5t76.5 35.5q65 28 164 42.5t170 14.5h42q-19 -15 -31.5 -37t-21.5 -50q14 2 23 3t24 1q16 0 23 -2q17 39 61 70q57 40 133 40q98 0 161 -61t63 -163zM3199 289q0 43 -29 73q-32 33 -85 33q-24 0 -48 -7.5
t-46 -21.5q23 -12 47 -33q21 -18 38 -40q39 -46 39 -90q45 0 64.5 21.5t19.5 64.5zM3098 204q2 8 2 14q0 20 -14 45t-35 44q-25 23 -29 26q-21 18 -39 29q-10 -6 -39.5 -28.5t-47.5 -35.5q60 -46 105 -68q53 -26 97 -26zM3096 196q-58 0 -128 30q-47 20 -95 52
q-17 -14 -35.5 -27.5t-41.5 -29.5q41 -30 89 -50q68 -28 132 -28q36 0 57 18q16 14 22 35zM2946 380q-63 34 -114 54.5t-97 33.5q-56 17 -117.5 23t-107.5 6h-16t-10 -1q16 -27 24 -47q5 -12 12 -33q37 -11 78 -42q19 23 79 23q44 0 103 -29q40 -20 70 -43q17 12 47 29
t49 26zM2824 307q-39 32 -64 49q-47 32 -90 32q-13 0 -28 -10t-22 -21q46 -40 77.5 -66.5t51.5 -39.5zM2741 245q-17 8 -63.5 50.5t-62.5 50.5q-7 -13 -7 -37q0 -20 4 -35q8 -25 19.5 -45t31.5 -35zM2650 188q-23 21 -37.5 42.5t-20.5 38.5t-8 30.5t-2 22.5q0 15 2.5 23.5
t6.5 17.5q-14 11 -22 16q-27 17 -45 21q1 -12 1.5 -23.5t0.5 -22.5q0 -121 -73 -186q-62 -55 -156 -55q-93 0 -153.5 59.5t-60.5 138.5q0 48 27.5 76.5t70.5 28.5t75 -26q22 -18 34 -44q11 24 39.5 43t64.5 28q-13 45 -57 75t-96 30q-90 0 -150 -50q-70 -58 -70 -161
q0 -115 98 -181q86 -58 205 -58q74 0 150 28t176 88zM2503 404q-8 2 -13 2q-21 3 -30 3q-16 0 -24 -4q4 -13 6 -29t2 -29q0 -66 -42.5 -106.5t-99.5 -40.5q-62 0 -99.5 31.5t-37.5 86.5h5q4 -39 32 -62t74 -23q53 0 89.5 39.5t36.5 93.5q0 14 -3 29q-26 -8 -40 -18
q-44 -30 -62 -87h-7q-5 54 -35.5 84.5t-73.5 30.5q-37 0 -62.5 -23.5t-25.5 -67.5q0 -80 59.5 -136t153.5 -56q84 0 144.5 59.5t60.5 155.5q0 12 -0.5 26.5t-7.5 40.5zM1771 311q0 103 -69 160q-62 51 -151 51q-53 0 -96.5 -29.5t-56.5 -75.5q36 -8 64.5 -27t39.5 -44
q12 25 33 43q33 27 76 27t70.5 -28.5t27.5 -76.5q0 -79 -60.5 -138.5t-153.5 -59.5q-94 0 -156 55q-73 65 -73 187v20.5t2 24.5q-19 -4 -44 -20q-8 -5 -23 -17q2 -4 5.5 -17t3.5 -25q0 -19 -8 -44.5t-22 -46t-38 -42.5q96 -58 175.5 -87t150.5 -29q119 0 205 58
q98 66 98 181zM1699 314q0 43 -26 67t-62 24q-42 0 -73 -31t-36 -84h-7q-18 56 -62 86q-14 10 -40 19q-3 -15 -3 -29q0 -55 35.5 -94t90.5 -39q45 0 73.5 23t32.5 62h5q0 -54 -37 -86t-100 -32q-56 0 -97 39q-45 42 -45 109q0 19 1 28.5t7 28.5q-8 4 -25 4t-34 -3
q-3 0 -8 -2q-4 -15 -6 -33t-2 -34q0 -95 61 -155t144 -60q95 0 154 55t59 137zM1308 496h-10.5t-16.5 1q-46 0 -105.5 -6t-123.5 -24.5t-119 -42.5q-30 -13 -87 -44q30 -14 48 -24q26 -15 48 -31q28 22 69 42q61 30 104 30q31 0 50.5 -6t28.5 -17q22 16 39.5 26t38.5 16
q5 16 11 31.5t25 48.5zM1172 357q-7 12 -21.5 21.5t-28.5 9.5q-42 0 -89 -32q-33 -25 -65 -49l75 -56q27 18 70 55q56 48 59 51zM1180 274q4 15 4 36q0 23 -7 36q-63 -51 -126 -101l78 -51q19 15 31 34.5t20 45.5zM896 298q-24 17 -47 35q-31 24 -40 29q-19 -12 -38 -28
q-2 -2 -30 -27q-21 -19 -35 -44t-14 -46q0 -5 2 -13q45 0 96 25q43 21 106 69zM996 221q-34 23 -52 37q-13 10 -25 20q-43 -29 -95 -51q-72 -31 -128 -31q6 -21 21 -34q22 -19 58 -19q67 0 132 27q44 18 89 51zM801 366q-14 9 -34 17q-31 12 -60 12q-52 0 -83 -31t-31 -75
q0 -42 20 -64t64 -22q0 44 39 90q17 21 37 39q25 22 48 34z" />
  </g>
</svg>
